<mxfile host="app.diagrams.net" modified="2021-01-07T09:51:39.853Z" agent="5.0 (Windows)" etag="dSifj_w_0YzYKABm-DaM" version="14.1.1" type="github">
  <diagram id="KCgOj_m18zTXma5g5LJL" name="Page-1">
    <mxGraphModel dx="1038" dy="547" grid="1" gridSize="10" guides="1" tooltips="1" connect="1" arrows="1" fold="1" page="1" pageScale="1" pageWidth="1169" pageHeight="827" math="0" shadow="0">
      <root>
        <mxCell id="0" />
        <mxCell id="1" parent="0" />
        <mxCell id="V44ASMHnhitSd9nr8uM7-1" value="Contribute to Existing Topic" style="swimlane;" vertex="1" parent="1">
          <mxGeometry x="19" y="9" width="1131" height="810" as="geometry" />
        </mxCell>
        <mxCell id="V44ASMHnhitSd9nr8uM7-2" value="End" style="rounded=1;whiteSpace=wrap;html=1;" vertex="1" parent="V44ASMHnhitSd9nr8uM7-1">
          <mxGeometry x="501" y="715" width="100" height="60" as="geometry" />
        </mxCell>
        <mxCell id="V44ASMHnhitSd9nr8uM7-3" value="" style="edgeStyle=orthogonalEdgeStyle;rounded=0;orthogonalLoop=1;jettySize=auto;html=1;entryX=0.5;entryY=0;entryDx=0;entryDy=0;" edge="1" parent="V44ASMHnhitSd9nr8uM7-1" source="V44ASMHnhitSd9nr8uM7-5" target="V44ASMHnhitSd9nr8uM7-2">
          <mxGeometry relative="1" as="geometry">
            <mxPoint x="1091" y="505" as="targetPoint" />
          </mxGeometry>
        </mxCell>
        <mxCell id="V44ASMHnhitSd9nr8uM7-4" value="KM officer holds the activity" style="whiteSpace=wrap;html=1;rounded=0;" vertex="1" parent="V44ASMHnhitSd9nr8uM7-1">
          <mxGeometry x="491" y="455" width="120" height="60" as="geometry" />
        </mxCell>
        <mxCell id="V44ASMHnhitSd9nr8uM7-5" value="KM officer develop success stories, lessons learnt" style="whiteSpace=wrap;html=1;rounded=0;" vertex="1" parent="V44ASMHnhitSd9nr8uM7-1">
          <mxGeometry x="491" y="585" width="120" height="60" as="geometry" />
        </mxCell>
        <mxCell id="V44ASMHnhitSd9nr8uM7-6" value="" style="edgeStyle=orthogonalEdgeStyle;rounded=0;orthogonalLoop=1;jettySize=auto;html=1;entryX=0.5;entryY=0;entryDx=0;entryDy=0;" edge="1" parent="V44ASMHnhitSd9nr8uM7-1" source="V44ASMHnhitSd9nr8uM7-4" target="V44ASMHnhitSd9nr8uM7-5">
          <mxGeometry relative="1" as="geometry">
            <mxPoint x="691" y="485" as="targetPoint" />
          </mxGeometry>
        </mxCell>
        <mxCell id="V44ASMHnhitSd9nr8uM7-7" value="Start" style="rounded=1;whiteSpace=wrap;html=1;" vertex="1" parent="V44ASMHnhitSd9nr8uM7-1">
          <mxGeometry x="501" y="35" width="100" height="60" as="geometry" />
        </mxCell>
        <mxCell id="V44ASMHnhitSd9nr8uM7-8" value="KM Officer develops workplan" style="rounded=0;whiteSpace=wrap;html=1;" vertex="1" parent="V44ASMHnhitSd9nr8uM7-1">
          <mxGeometry x="491" y="175" width="120" height="60" as="geometry" />
        </mxCell>
        <mxCell id="V44ASMHnhitSd9nr8uM7-9" value="" style="edgeStyle=orthogonalEdgeStyle;rounded=0;orthogonalLoop=1;jettySize=auto;html=1;" edge="1" parent="V44ASMHnhitSd9nr8uM7-1" source="V44ASMHnhitSd9nr8uM7-7" target="V44ASMHnhitSd9nr8uM7-8">
          <mxGeometry relative="1" as="geometry">
            <mxPoint x="551" y="175" as="targetPoint" />
          </mxGeometry>
        </mxCell>
        <mxCell id="V44ASMHnhitSd9nr8uM7-10" value="" style="edgeStyle=orthogonalEdgeStyle;rounded=0;orthogonalLoop=1;jettySize=auto;html=1;entryX=0.5;entryY=0;entryDx=0;entryDy=0;" edge="1" parent="V44ASMHnhitSd9nr8uM7-1" source="V44ASMHnhitSd9nr8uM7-11" target="V44ASMHnhitSd9nr8uM7-4">
          <mxGeometry relative="1" as="geometry">
            <mxPoint x="691" y="485" as="targetPoint" />
          </mxGeometry>
        </mxCell>
        <mxCell id="V44ASMHnhitSd9nr8uM7-11" value="KM Officer plans for the activity" style="whiteSpace=wrap;html=1;rounded=0;" vertex="1" parent="V44ASMHnhitSd9nr8uM7-1">
          <mxGeometry x="491" y="315" width="120" height="60" as="geometry" />
        </mxCell>
        <mxCell id="V44ASMHnhitSd9nr8uM7-12" value="" style="edgeStyle=orthogonalEdgeStyle;rounded=0;orthogonalLoop=1;jettySize=auto;html=1;" edge="1" parent="V44ASMHnhitSd9nr8uM7-1" source="V44ASMHnhitSd9nr8uM7-8" target="V44ASMHnhitSd9nr8uM7-11">
          <mxGeometry relative="1" as="geometry" />
        </mxCell>
      </root>
    </mxGraphModel>
  </diagram>
</mxfile>
